<svg xmlns="http://www.w3.org/2000/svg" xmlns:xlink="http://www.w3.org/1999/xlink" width="500" zoomAndPan="magnify" viewBox="0 0 375 374.999991" height="500" preserveAspectRatio="xMidYMid meet" version="1.0"><defs><g/><clipPath id="5d0c1ef59a"><rect x="0" width="323" y="0" height="111"/></clipPath><clipPath id="24203fc6f4"><rect x="0" width="172" y="0" height="33"/></clipPath></defs><g transform="matrix(1, 0, 0, 1, 27, 102)"><g clip-path="url(#5d0c1ef59a)"><g fill="#c39f55" fill-opacity="1"><g transform="translate(0.487655, 89.493078)"><g><path d="M 44.890625 -57.78125 L 44.890625 -56.140625 L 12.328125 -1.875 L 28.3125 -1.875 C 30.875 -1.875 32.957031 -2.144531 34.5625 -2.6875 C 36.164062 -3.238281 37.441406 -4.097656 38.390625 -5.265625 C 39.347656 -6.429688 40.070312 -7.992188 40.5625 -9.953125 C 41.050781 -11.910156 41.429688 -14.304688 41.703125 -17.140625 L 43.578125 -17.140625 C 43.410156 -15.453125 43.328125 -13.222656 43.328125 -10.453125 C 43.328125 -9.410156 43.367188 -7.921875 43.453125 -5.984375 C 43.535156 -4.054688 43.6875 -2.0625 43.90625 0 C 41.894531 -0.101562 39.691406 -0.171875 37.296875 -0.203125 C 34.898438 -0.234375 32.519531 -0.25 30.15625 -0.25 C 27.789062 -0.25 25.597656 -0.25 23.578125 -0.25 C 20.367188 -0.25 16.984375 -0.234375 13.421875 -0.203125 C 9.859375 -0.171875 6.523438 -0.101562 3.421875 0 L 3.421875 -1.625 L 36.234375 -55.90625 L 20.328125 -55.90625 C 17.765625 -55.90625 15.679688 -55.628906 14.078125 -55.078125 C 12.472656 -54.535156 11.191406 -53.679688 10.234375 -52.515625 C 9.285156 -51.347656 8.566406 -49.785156 8.078125 -47.828125 C 7.585938 -45.867188 7.207031 -43.472656 6.9375 -40.640625 L 5.0625 -40.640625 C 5.164062 -41.515625 5.226562 -42.519531 5.25 -43.65625 C 5.28125 -44.800781 5.296875 -46.023438 5.296875 -47.328125 C 5.296875 -48.367188 5.253906 -49.851562 5.171875 -51.78125 C 5.097656 -53.707031 4.953125 -55.707031 4.734375 -57.78125 C 6.742188 -57.726562 8.945312 -57.671875 11.34375 -57.609375 C 13.738281 -57.554688 16.128906 -57.53125 18.515625 -57.53125 C 20.910156 -57.53125 23.085938 -57.53125 25.046875 -57.53125 C 28.148438 -57.53125 31.484375 -57.539062 35.046875 -57.5625 C 38.609375 -57.59375 41.890625 -57.664062 44.890625 -57.78125 Z M 44.890625 -57.78125 "/></g></g></g><g fill="#c39f55" fill-opacity="1"><g transform="translate(48.966357, 89.493078)"><g><path d="M 26.359375 -58.1875 L 46.265625 -6.859375 C 47.085938 -4.785156 48.015625 -3.410156 49.046875 -2.734375 C 50.078125 -2.054688 51.03125 -1.6875 51.90625 -1.625 L 51.90625 0 C 50.8125 -0.101562 49.472656 -0.171875 47.890625 -0.203125 C 46.316406 -0.234375 44.742188 -0.25 43.171875 -0.25 C 41.046875 -0.25 39.054688 -0.234375 37.203125 -0.203125 C 35.359375 -0.171875 33.863281 -0.101562 32.71875 0 L 32.71875 -1.625 C 35.5 -1.738281 37.269531 -2.21875 38.03125 -3.0625 C 38.789062 -3.90625 38.628906 -5.710938 37.546875 -8.484375 L 22.359375 -49.046875 L 23.671875 -50.109375 L 9.46875 -13.21875 C 8.59375 -11.039062 8.070312 -9.203125 7.90625 -7.703125 C 7.75 -6.210938 7.898438 -5.03125 8.359375 -4.15625 C 8.828125 -3.289062 9.617188 -2.664062 10.734375 -2.28125 C 11.847656 -1.90625 13.25 -1.6875 14.9375 -1.625 L 14.9375 0 C 13.414062 -0.101562 11.820312 -0.171875 10.15625 -0.203125 C 8.5 -0.234375 6.960938 -0.25 5.546875 -0.25 C 4.191406 -0.25 3.035156 -0.234375 2.078125 -0.203125 C 1.128906 -0.171875 0.242188 -0.101562 -0.578125 0 L -0.578125 -1.625 C 0.515625 -1.90625 1.628906 -2.546875 2.765625 -3.546875 C 3.910156 -4.554688 4.945312 -6.285156 5.875 -8.734375 L 25.046875 -58.1875 C 25.265625 -58.1875 25.484375 -58.1875 25.703125 -58.1875 C 25.921875 -58.1875 26.140625 -58.1875 26.359375 -58.1875 Z M 36.3125 -23.5 L 36.3125 -21.875 L 12 -21.875 L 12.8125 -23.5 Z M 36.3125 -23.5 "/></g></g></g><g fill="#c39f55" fill-opacity="1"><g transform="translate(98.750867, 89.493078)"><g><path d="M 24.234375 -57.78125 L 24.234375 -56.140625 C 22.390625 -56.085938 20.988281 -55.882812 20.03125 -55.53125 C 19.082031 -55.175781 18.441406 -54.523438 18.109375 -53.578125 C 17.785156 -52.628906 17.625 -51.144531 17.625 -49.125 L 17.625 -8.65625 C 17.625 -6.695312 17.785156 -5.226562 18.109375 -4.25 C 18.441406 -3.269531 19.082031 -2.628906 20.03125 -2.328125 C 20.988281 -2.023438 22.390625 -1.875 24.234375 -1.875 L 30.203125 -1.875 C 32.753906 -1.875 34.832031 -2.144531 36.4375 -2.6875 C 38.039062 -3.238281 39.316406 -4.097656 40.265625 -5.265625 C 41.222656 -6.429688 41.945312 -7.992188 42.4375 -9.953125 C 42.925781 -11.910156 43.304688 -14.304688 43.578125 -17.140625 L 45.453125 -17.140625 C 45.296875 -15.453125 45.21875 -13.222656 45.21875 -10.453125 C 45.21875 -9.410156 45.253906 -7.921875 45.328125 -5.984375 C 45.410156 -4.054688 45.5625 -2.0625 45.78125 0 C 43.007812 -0.101562 39.878906 -0.171875 36.390625 -0.203125 C 32.910156 -0.234375 29.8125 -0.25 27.09375 -0.25 C 25.894531 -0.25 24.359375 -0.25 22.484375 -0.25 C 20.609375 -0.25 18.582031 -0.234375 16.40625 -0.203125 C 14.226562 -0.171875 12.023438 -0.140625 9.796875 -0.109375 C 7.566406 -0.0859375 5.441406 -0.0507812 3.421875 0 L 3.421875 -1.625 C 5.273438 -1.738281 6.675781 -1.957031 7.625 -2.28125 C 8.582031 -2.613281 9.222656 -3.269531 9.546875 -4.25 C 9.867188 -5.226562 10.03125 -6.695312 10.03125 -8.65625 L 10.03125 -49.125 C 10.03125 -51.144531 9.867188 -52.628906 9.546875 -53.578125 C 9.222656 -54.523438 8.582031 -55.175781 7.625 -55.53125 C 6.675781 -55.882812 5.273438 -56.085938 3.421875 -56.140625 L 3.421875 -57.78125 C 4.566406 -57.726562 6.0625 -57.671875 7.90625 -57.609375 C 9.757812 -57.554688 11.75 -57.53125 13.875 -57.53125 C 15.78125 -57.53125 17.671875 -57.554688 19.546875 -57.609375 C 21.421875 -57.671875 22.984375 -57.726562 24.234375 -57.78125 Z M 24.234375 -57.78125 "/></g></g></g><g fill="#c39f55" fill-opacity="1"><g transform="translate(146.739891, 89.493078)"><g><path d="M 67.65625 -57.78125 L 67.65625 -56.140625 C 65.800781 -56.085938 64.394531 -55.882812 63.4375 -55.53125 C 62.488281 -55.175781 61.851562 -54.523438 61.53125 -53.578125 C 61.207031 -52.628906 61.046875 -51.144531 61.046875 -49.125 L 61.046875 -8.65625 C 61.046875 -6.695312 61.207031 -5.226562 61.53125 -4.25 C 61.851562 -3.269531 62.488281 -2.613281 63.4375 -2.28125 C 64.394531 -1.957031 65.800781 -1.738281 67.65625 -1.625 L 67.65625 0 C 66.40625 -0.101562 64.835938 -0.171875 62.953125 -0.203125 C 61.078125 -0.234375 59.191406 -0.25 57.296875 -0.25 C 55.171875 -0.25 53.179688 -0.234375 51.328125 -0.203125 C 49.484375 -0.171875 47.988281 -0.101562 46.84375 0 L 46.84375 -1.625 C 48.695312 -1.738281 50.097656 -1.957031 51.046875 -2.28125 C 51.992188 -2.613281 52.628906 -3.269531 52.953125 -4.25 C 53.285156 -5.226562 53.453125 -6.695312 53.453125 -8.65625 L 53.453125 -53.53125 L 53.78125 -53.296875 L 33.78125 0.40625 L 32.484375 0.40625 L 11.921875 -52.5625 L 11.921875 -9.46875 C 11.921875 -7.507812 12.09375 -5.972656 12.4375 -4.859375 C 12.789062 -3.742188 13.5 -2.953125 14.5625 -2.484375 C 15.625 -2.023438 17.21875 -1.738281 19.34375 -1.625 L 19.34375 0 C 18.363281 -0.101562 17.082031 -0.171875 15.5 -0.203125 C 13.925781 -0.234375 12.429688 -0.25 11.015625 -0.25 C 9.660156 -0.25 8.285156 -0.234375 6.890625 -0.203125 C 5.503906 -0.171875 4.347656 -0.101562 3.421875 0 L 3.421875 -1.625 C 5.273438 -1.738281 6.675781 -2.023438 7.625 -2.484375 C 8.582031 -2.953125 9.222656 -3.742188 9.546875 -4.859375 C 9.867188 -5.972656 10.03125 -7.507812 10.03125 -9.46875 L 10.03125 -49.125 C 10.03125 -51.144531 9.867188 -52.628906 9.546875 -53.578125 C 9.222656 -54.523438 8.582031 -55.175781 7.625 -55.53125 C 6.675781 -55.882812 5.273438 -56.085938 3.421875 -56.140625 L 3.421875 -57.78125 C 4.347656 -57.726562 5.503906 -57.671875 6.890625 -57.609375 C 8.285156 -57.554688 9.660156 -57.53125 11.015625 -57.53125 C 12.210938 -57.53125 13.445312 -57.554688 14.71875 -57.609375 C 16 -57.671875 17.078125 -57.726562 17.953125 -57.78125 L 36.484375 -8.984375 L 35.09375 -8.328125 L 53.453125 -57.53125 C 54.109375 -57.53125 54.75 -57.53125 55.375 -57.53125 C 56 -57.53125 56.640625 -57.53125 57.296875 -57.53125 C 59.191406 -57.53125 61.078125 -57.554688 62.953125 -57.609375 C 64.835938 -57.671875 66.40625 -57.726562 67.65625 -57.78125 Z M 67.65625 -57.78125 "/></g></g></g><g fill="#c39f55" fill-opacity="1"><g transform="translate(217.825666, 89.493078)"><g><path d="M 26.359375 -58.1875 L 46.265625 -6.859375 C 47.085938 -4.785156 48.015625 -3.410156 49.046875 -2.734375 C 50.078125 -2.054688 51.03125 -1.6875 51.90625 -1.625 L 51.90625 0 C 50.8125 -0.101562 49.472656 -0.171875 47.890625 -0.203125 C 46.316406 -0.234375 44.742188 -0.25 43.171875 -0.25 C 41.046875 -0.25 39.054688 -0.234375 37.203125 -0.203125 C 35.359375 -0.171875 33.863281 -0.101562 32.71875 0 L 32.71875 -1.625 C 35.5 -1.738281 37.269531 -2.21875 38.03125 -3.0625 C 38.789062 -3.90625 38.628906 -5.710938 37.546875 -8.484375 L 22.359375 -49.046875 L 23.671875 -50.109375 L 9.46875 -13.21875 C 8.59375 -11.039062 8.070312 -9.203125 7.90625 -7.703125 C 7.75 -6.210938 7.898438 -5.03125 8.359375 -4.15625 C 8.828125 -3.289062 9.617188 -2.664062 10.734375 -2.28125 C 11.847656 -1.90625 13.25 -1.6875 14.9375 -1.625 L 14.9375 0 C 13.414062 -0.101562 11.820312 -0.171875 10.15625 -0.203125 C 8.5 -0.234375 6.960938 -0.25 5.546875 -0.25 C 4.191406 -0.25 3.035156 -0.234375 2.078125 -0.203125 C 1.128906 -0.171875 0.242188 -0.101562 -0.578125 0 L -0.578125 -1.625 C 0.515625 -1.90625 1.628906 -2.546875 2.765625 -3.546875 C 3.910156 -4.554688 4.945312 -6.285156 5.875 -8.734375 L 25.046875 -58.1875 C 25.265625 -58.1875 25.484375 -58.1875 25.703125 -58.1875 C 25.921875 -58.1875 26.140625 -58.1875 26.359375 -58.1875 Z M 36.3125 -23.5 L 36.3125 -21.875 L 12 -21.875 L 12.8125 -23.5 Z M 36.3125 -23.5 "/></g></g></g><g fill="#c39f55" fill-opacity="1"><g transform="translate(267.610177, 89.493078)"><g><path d="M 3.421875 -57.78125 C 4.566406 -57.726562 6.0625 -57.671875 7.90625 -57.609375 C 9.757812 -57.554688 11.585938 -57.53125 13.390625 -57.53125 C 15.941406 -57.53125 18.382812 -57.554688 20.71875 -57.609375 C 23.0625 -57.671875 24.722656 -57.703125 25.703125 -57.703125 C 30.109375 -57.703125 33.765625 -57.070312 36.671875 -55.8125 C 39.585938 -54.5625 41.765625 -52.863281 43.203125 -50.71875 C 44.648438 -48.570312 45.375 -46.164062 45.375 -43.5 C 45.375 -41.863281 45.046875 -40.117188 44.390625 -38.265625 C 43.742188 -36.421875 42.613281 -34.679688 41 -33.046875 C 39.394531 -31.421875 37.207031 -30.078125 34.4375 -29.015625 C 31.664062 -27.953125 28.15625 -27.421875 23.90625 -27.421875 L 16.078125 -27.421875 L 16.078125 -29.046875 L 23.09375 -29.046875 C 26.957031 -29.046875 29.910156 -29.65625 31.953125 -30.875 C 33.992188 -32.101562 35.378906 -33.738281 36.109375 -35.78125 C 36.847656 -37.820312 37.21875 -40.09375 37.21875 -42.59375 C 37.21875 -46.894531 36.195312 -50.226562 34.15625 -52.59375 C 32.113281 -54.957031 28.617188 -56.140625 23.671875 -56.140625 C 21.160156 -56.140625 19.523438 -55.675781 18.765625 -54.75 C 18.003906 -53.832031 17.625 -51.957031 17.625 -49.125 L 17.625 -8.65625 C 17.625 -6.695312 17.785156 -5.226562 18.109375 -4.25 C 18.441406 -3.269531 19.082031 -2.613281 20.03125 -2.28125 C 20.988281 -1.957031 22.390625 -1.738281 24.234375 -1.625 L 24.234375 0 C 22.984375 -0.101562 21.421875 -0.171875 19.546875 -0.203125 C 17.671875 -0.234375 15.78125 -0.25 13.875 -0.25 C 11.75 -0.25 9.757812 -0.234375 7.90625 -0.203125 C 6.0625 -0.171875 4.566406 -0.101562 3.421875 0 L 3.421875 -1.625 C 5.273438 -1.738281 6.675781 -1.957031 7.625 -2.28125 C 8.582031 -2.613281 9.222656 -3.269531 9.546875 -4.25 C 9.867188 -5.226562 10.03125 -6.695312 10.03125 -8.65625 L 10.03125 -49.125 C 10.03125 -51.144531 9.867188 -52.628906 9.546875 -53.578125 C 9.222656 -54.523438 8.582031 -55.175781 7.625 -55.53125 C 6.675781 -55.882812 5.273438 -56.085938 3.421875 -56.140625 Z M 16.40625 -28.8125 C 19.34375 -28.695312 21.65625 -28.570312 23.34375 -28.4375 C 25.03125 -28.300781 26.398438 -28.175781 27.453125 -28.0625 C 28.515625 -27.957031 29.535156 -27.828125 30.515625 -27.671875 C 34.160156 -27.066406 36.785156 -25.960938 38.390625 -24.359375 C 40.003906 -22.753906 41.191406 -20.265625 41.953125 -16.890625 L 43.984375 -8.5625 C 44.523438 -6.175781 45.082031 -4.453125 45.65625 -3.390625 C 46.226562 -2.328125 47.113281 -1.820312 48.3125 -1.875 C 49.238281 -1.925781 50.015625 -2.222656 50.640625 -2.765625 C 51.265625 -3.316406 51.929688 -4.054688 52.640625 -4.984375 L 53.859375 -4.078125 C 52.722656 -2.390625 51.539062 -1.097656 50.3125 -0.203125 C 49.082031 0.691406 47.351562 1.140625 45.125 1.140625 C 43.113281 1.140625 41.347656 0.539062 39.828125 -0.65625 C 38.304688 -1.851562 37.160156 -4.191406 36.390625 -7.671875 L 34.609375 -15.828125 C 34.117188 -18.171875 33.554688 -20.195312 32.921875 -21.90625 C 32.296875 -23.625 31.425781 -24.972656 30.3125 -25.953125 C 29.195312 -26.929688 27.550781 -27.421875 25.375 -27.421875 L 16.5625 -27.421875 Z M 16.40625 -28.8125 "/></g></g></g></g></g><g transform="matrix(1, 0, 0, 1, 108, 209)"><g clip-path="url(#24203fc6f4)"><g fill="#002a44" fill-opacity="1"><g transform="translate(0.554502, 26.083187)"><g><path d="M 15.609375 -17.0625 L 8.953125 -17.0625 L 8.953125 0 L 7.109375 0 L 7.109375 -17.0625 L 0.453125 -17.0625 L 0.453125 -18.6875 L 15.609375 -18.6875 Z M 15.609375 -17.0625 "/></g></g></g><g fill="#002a44" fill-opacity="1"><g transform="translate(28.456144, 26.083187)"><g><path d="M 2.34375 0 L 2.34375 -18.6875 L 10.234375 -18.6875 C 11.046875 -18.6875 11.785156 -18.519531 12.453125 -18.1875 C 13.117188 -17.851562 13.703125 -17.398438 14.203125 -16.828125 C 14.703125 -16.265625 15.085938 -15.632812 15.359375 -14.9375 C 15.628906 -14.25 15.765625 -13.546875 15.765625 -12.828125 C 15.765625 -11.929688 15.59375 -11.085938 15.25 -10.296875 C 14.914062 -9.503906 14.4375 -8.835938 13.8125 -8.296875 C 13.1875 -7.753906 12.453125 -7.394531 11.609375 -7.21875 L 16.1875 0 L 14.109375 0 L 9.71875 -6.890625 L 4.1875 -6.890625 L 4.1875 0 Z M 4.1875 -8.53125 L 10.296875 -8.53125 C 11.035156 -8.53125 11.675781 -8.726562 12.21875 -9.125 C 12.757812 -9.53125 13.175781 -10.0625 13.46875 -10.71875 C 13.769531 -11.382812 13.921875 -12.085938 13.921875 -12.828125 C 13.921875 -13.578125 13.75 -14.269531 13.40625 -14.90625 C 13.070312 -15.550781 12.617188 -16.070312 12.046875 -16.46875 C 11.472656 -16.863281 10.835938 -17.0625 10.140625 -17.0625 L 4.1875 -17.0625 Z M 4.1875 -8.53125 "/></g></g></g><g fill="#002a44" fill-opacity="1"><g transform="translate(57.410432, 26.083187)"><g><path d="M 8.140625 -18.6875 L 9.6875 -18.6875 L 17.453125 0 L 15.5 0 L 13.078125 -5.84375 L 4.6875 -5.84375 L 2.296875 0 L 0.3125 0 Z M 12.65625 -7.296875 L 8.90625 -16.53125 L 5.078125 -7.296875 Z M 12.65625 -7.296875 "/></g></g></g><g fill="#002a44" fill-opacity="1"><g transform="translate(85.495741, 26.083187)"><g><path d="M 2.265625 -18.6875 L 8.953125 -2.296875 L 15.609375 -18.6875 L 17.53125 -18.6875 L 9.796875 0 L 8.109375 0 L 0.34375 -18.6875 Z M 2.265625 -18.6875 "/></g></g></g><g fill="#002a44" fill-opacity="1"><g transform="translate(115.21324, 26.083187)"><g><path d="M 14.90625 -1.625 L 14.90625 0 L 2.34375 0 L 2.34375 -18.6875 L 14.671875 -18.6875 L 14.671875 -17.0625 L 4.1875 -17.0625 L 4.1875 -10.328125 L 13.328125 -10.328125 L 13.328125 -8.765625 L 4.1875 -8.765625 L 4.1875 -1.625 Z M 14.90625 -1.625 "/></g></g></g><g fill="#002a44" fill-opacity="1"><g transform="translate(143.08857, 26.083187)"><g><path d="M 2.34375 0 L 2.34375 -18.6875 L 4.1875 -18.6875 L 4.1875 -1.625 L 14.984375 -1.625 L 14.984375 0 Z M 2.34375 0 "/></g></g></g></g></g></svg>